<?xml version="1.0" encoding="UTF-8"?>
<svg xmlns="http://www.w3.org/2000/svg"
     width="1009" height="669" viewBox="0 0 1009 669"
     shape-rendering="geometricPrecision">
  <title>BE ART composition</title>
  <desc>Three-circle BE ART composition with live Lato text labels and vector BE ART logo.</desc>

  <style>display=swap");

    /* Lato Light is used for ART / EDUCATION / TECHNOLOGY.
       Load Lato 300 on the host page for deterministic rendering. */
    .diagram-label {
      font-family: "Lato", "Helvetica Neue", Arial, sans-serif;
      font-size: 21.464px;
      font-weight: 300;
      font-style: normal;
      fill: #171715;
      font-kerning: normal;
      font-synthesis: none;
    }
  </style>

  <rect id="page-background" width="1009" height="669" fill="#FFFFFF"/>
  <rect id="artwork-background" x="21" y="15" width="973" height="618" fill="#FFFFFF"/>

  <g id="circles"
     fill="none"
     stroke="#171715"
     stroke-width="0.79926852"
     stroke-dasharray="2.82369955 2.11917410"
     stroke-linecap="butt">
    <circle cx="507.29593079" cy="240.28138073" r="194.70571988"
            stroke-dashoffset="-1.57282119"/>
    <circle cx="409.73153411" cy="407.04350701" r="194.93994682"
            stroke-dashoffset="1.95272921"/>
    <circle cx="604.92797591" cy="407.04426192" r="195.00843780"
            stroke-dashoffset="-3.19692183"/>
  </g>

  <g id="be-art-logo" fill="#171715"
     transform="matrix(0.176829620 0 0 0.165817800 433.820206 302.191035)">
    <path transform="matrix(1,0,0,-1,203.5728,250.047)" d="M0 0C0 22.373-16.444 33.56-49.33 33.56H-93.371V32.921C-90.133 28.446-88.513 16.157-88.513-3.942V-130.084H-52.676C-48.072-130.084-43.447-129.801-38.806-129.232-34.164-128.665-28.785-127.314-22.668-125.184-16.552-123.053-11.209-120.249-6.638-116.767-2.069-113.289 1.835-108.35 5.073-101.958 8.312-95.566 9.931-88.073 9.931-79.478 9.931-54.62-2.663-39.35-27.849-33.666-9.283-28.126 0-16.905 0 0M-68.544-37.608H-46.631C-36.341-37.608-27.671-41.054-20.617-47.943-13.565-54.833-10.039-65.628-10.039-80.332-10.039-94.75-13.565-105.564-20.617-112.772-27.671-119.981-37.529-123.586-50.194-123.586H-68.544ZM-19.969-.959C-19.969-4.298-20.401-7.494-21.265-10.547-22.128-13.602-23.747-16.833-26.122-20.242-28.497-23.652-32.348-26.405-37.672-28.499-42.999-30.595-49.475-31.642-57.102-31.642H-68.544V27.7H-54.835C-31.735 27.629-20.115 18.075-19.969-.959"/>
    <path transform="matrix(1,0,0,-1,392.6396,287.4425)" d="M0 0C-2.807 20.81-12.235 38.354-28.281 52.63-44.329 66.907-63.039 74.045-84.412 74.045-107.727 74.045-127.823 65.788-144.698 49.274-161.574 32.761-170.011 12.926-170.011-10.228-170.011-25.214-166.054-39.331-158.137-52.577-150.222-65.825-139.751-76.334-126.725-84.113-113.701-91.89-99.885-95.779-85.275-95.779-69.084-95.779-53.648-91.002-38.968-81.449-24.287-71.897-13.422-59.414-6.369-44L-16.084-41.018C-19.467-53.802-26.176-63.942-36.215-71.435-46.254-78.929-57.822-82.673-70.919-82.673-92.723-82.673-111.956-74.417-128.615-57.904-145.275-41.391-154.108-22.089-155.115 0ZM-20.293 6.605H-155.115C-154.396 22.869-148.692 36.133-138.006 46.398-127.319 56.661-114.096 61.793-98.336 61.793-81.354 61.793-65.721 56.589-51.435 46.185-37.151 35.779-26.77 22.586-20.293 6.605"/>
    <path transform="matrix(1,0,0,-1,534.0439,380.1315)" d="M0 0-46.416 163.644H-66.277L-62.716 151.179-105.678 0H-82.686V1.065C-90.313 8.949-92.222 20.739-88.406 36.436L-72.543 92.858H-46.307L-19.862 0ZM-47.82 99.581H-70.272L-59.153 139.247Z"/>
    <path transform="matrix(1,0,0,-1,627.4687,309.2828)" d="M0 0C10.613 11.435 15.922 25 15.922 40.698 15.922 48.369 14.445 55.294 11.496 61.473 8.544 67.652 4.819 72.641 .324 76.442-4.174 80.241-9.445 83.402-15.49 85.924-21.535 88.444-27.382 90.22-33.031 91.251-38.682 92.28-44.383 92.796-50.141 92.796H-80.256V92.156C-77.019 87.682-75.398 75.393-75.398 55.294V-70.849H-55.43V-29.831C-42.765-29.831-30.98-33.756-20.077-41.604-9.176-49.453-3.725-59.201-3.725-70.849H16.138C16.138-58.775 10.884-48.813 .378-40.964-10.13-33.117-22.76-27.807-37.51-25.037-23.118-19.781-10.616-11.436 0 0M-3.94 38.674C-3.94 28.659-5.632 19.656-9.014 11.666-12.397 3.676-16.822-2.664-22.29-7.351-27.76-12.039-33.284-15.645-38.86-18.165-44.438-20.687-49.961-22.303-55.43-23.013V86.084H-50.141C-46.326 86.084-42.567 85.781-38.86 85.178-35.154 84.574-31.106 83.26-26.716 81.236-22.327 79.212-18.531 76.565-15.328 73.299-12.127 70.031-9.429 65.415-7.232 59.449-5.038 53.483-3.94 46.558-3.94 38.674"/>
    <path transform="matrix(1,0,0,-1,648.0312,216.4874)" d="M0 0V-19.603H1.187C5.001-16.124 7.897-13.62 9.877-12.092 11.855-10.566 14.717-9.146 18.458-7.831 22.199-6.517 26.662-5.86 31.844-5.86V-163.644H51.813V-5.86C56.923-5.86 61.366-6.517 65.145-7.831 68.923-9.146 71.836-10.566 73.888-12.092 75.938-13.62 78.8-16.124 82.47-19.603H83.656V0Z"/>
  </g>

  <g id="diagram-labels" aria-label="Diagram labels">
    <text id="label-art" class="diagram-label"
          x="507.0" y="159.11" text-anchor="middle"
          letter-spacing="0.27px"
          transform="translate(507 0) scale(0.8 1) translate(-507 0)">ART</text>

    <text id="label-education" class="diagram-label"
          x="312.0" y="421.33" text-anchor="middle"
          letter-spacing="0.27px"
          transform="translate(312 0) scale(0.8 1) translate(-312 0)">EDUCATION</text>

    <text id="label-digital" class="diagram-label"
          x="703.0" y="421.33" text-anchor="middle"
          letter-spacing="0.27px"
          transform="translate(703 0) scale(0.8 1) translate(-703 0)">TECHNOLOGY</text>
  </g>
</svg>
